<?xml version="1.0" encoding="utf-8"?>
<!-- Generator: Adobe Illustrator 20.0.0, SVG Export Plug-In . SVG Version: 6.00 Build 0)  -->
<svg version="1.1" id="Capa_1" xmlns="http://www.w3.org/2000/svg" xmlns:xlink="http://www.w3.org/1999/xlink" x="0px" y="0px"
	 viewBox="0 0 271.8 35" style="enable-background:new 0 0 271.8 35;" xml:space="preserve">
<style type="text/css">
	.st0{fill:#706F6F;}
	.st1{fill:#878787;}
	.st2{fill:#E30613;}
	.st3{fill:#E74011;}
	.st4{fill:#EE7203;}
	.st5{fill:#6AA426;}
	.st6{fill:#2E852A;}
	.st7{fill:#006829;}
</style>
<path class="st0" d="M162.8,5.8H181c1,0,1.8,0.3,2.5,0.9c0.6,0.6,0.9,1.3,0.8,2.1l-3,17.6H174l3.1-17.6h-7.6l-3.1,17.6h-7L162.8,5.8
	z"/>
<path class="st0" d="M237.1,5.8h18.2c1,0,1.8,0.3,2.5,0.9c0.6,0.6,0.9,1.3,0.8,2.1l-3,17.6h-7.3l3.1-17.6h-7.6l-3.1,17.6h-7
	L237.1,5.8z"/>
<polygon class="st0" points="194.1,0 201.8,0 200.8,5.7 206.7,5.7 206.1,8.7 200.3,8.7 197.3,26.3 189.6,26.3 192.6,8.7 188.8,8.7 
	189.3,5.7 193.2,5.7 "/>
<path class="st0" d="M117.6,5.8h-3.9c-1,0-1.9,0-2.7,0.5c-0.8,0.6-1.1,1.4-1.2,2.3l-0.7,4c-0.1,0.8,0.1,1.6,0.7,2.2
	c0.6,0.6,1.5,0.9,2.5,0.9h3.8h7.2l-1.3,7.7h-14.8l-0.5,3h15.1h4c0.8,0,2.9-0.3,3.4-2.7l0,0l1.3-8c0.1-0.8-0.2-1.5-0.8-2.1
	s-1.5-0.9-2.5-0.9h-10.9l0.7-3.9h14.7l0.5-3C132.2,5.8,117.6,5.8,117.6,5.8z"/>
<path class="st0" d="M156.9,6.6c-0.6-0.6-1.5-0.9-2.5-0.9h-17.7l-0.5,3h14.7l-0.6,3.8H139c-1,0-1.9,0.3-2.7,0.9
	c-0.8,0.6-1.2,1.3-1.3,2.1l-1.3,7.4l-0.1,0.4c0,0.7,0.3,3,2.8,3h18.5L157.8,9C157.8,7.9,157.5,7.2,156.9,6.6 M148.3,23.4h-7.4
	l1.3-7.8h7.5L148.3,23.4z"/>
<polygon class="st0" points="270.9,5.8 267.3,26.3 260.1,26.3 263.6,5.8 "/>
<polygon class="st0" points="271.8,0 271.1,3.9 263.9,3.9 264.6,0 "/>
<path class="st0" d="M79.5,8.7l0.5-3H61.9c-1,0-1.9,0.3-2.7,0.9s-1.3,1.3-1.4,2.1c0,0-2.5,14.6-2.6,15.2c0.1,2.5,2.9,2.4,2.9,2.4
	h0.4h1.7h1.9h14.4l0.5-3H62.5L65,8.7C65,8.7,79.5,8.7,79.5,8.7z"/>
<path class="st0" d="M104.7,6.6c-0.6-0.6-1.5-0.9-2.5-0.9H87.9c-1,0-1.9,0.3-2.7,0.9c-0.8,0.6-1.2,1.3-1.3,2.1l-2.3,13.7l0,0
	c-0.1,0.3-0.1,0.5-0.1,0.8v0.2l0,0l0,0c-0.1,2.8,2.7,2.8,2.7,2.8H85h1.3h16.2l0.5-3H88.6l1.3-7.8h14.3c0.1-1,1.1-5.8,1.2-6.8
	C105.6,7.9,105.3,7.2,104.7,6.6 M97.6,12.6h-7.1l0.7-3.8h7.1L97.6,12.6z"/>
<path class="st0" d="M231.6,6.6c-0.6-0.6-1.5-0.9-2.5-0.9h-14.6c-1,0-1.9,0.3-2.7,0.9s-1.2,1.3-1.3,2.1l-2.5,14c0,0-1.1,3.6,2.9,3.6
	h1.4h6.1h6c0,0,0.4,0,1,0l0,0l0,0c1.4-0.1,3.9-0.8,4.5-4.1l0,0c0-0.1,0.1-0.2,0.1-0.4l2.3-13.2C232.4,7.9,232.2,7.2,231.6,6.6
	 M215,23.3l2.6-14.6h7.3l-2.4,14.6H215z"/>
<path class="st1" d="M135.8,33.5l0.9,0l0,0.2c-0.1,0.7-0.3,1.1-0.6,1.3c-0.3,0.2-0.8,0.3-1.7,0.3c-0.9,0-1.5-0.2-1.7-0.5
	c-0.2-0.3-0.1-1.1,0.1-2.5c0.1-0.8,0.4-1.3,0.7-1.6c0.3-0.2,1-0.4,1.9-0.4c0.7,0,1.1,0.1,1.3,0.3c0.2,0.2,0.2,0.6,0.1,1.2l0,0.1
	l-0.8,0l0-0.1c0.1-0.3,0-0.5-0.1-0.6s-0.4-0.1-0.8-0.1c-0.6,0-0.9,0.1-1.1,0.2c-0.1,0.1-0.3,0.5-0.4,1.2c-0.2,0.9-0.2,1.5-0.1,1.6
	c0.1,0.2,0.4,0.2,0.9,0.2c0.4,0,0.7,0,0.9-0.1c0.2-0.1,0.3-0.3,0.3-0.6L135.8,33.5z"/>
<polygon class="st1" points="152.8,31.1 152.6,32.4 154.8,32.4 154.7,33 152.4,33 152.2,34.4 154.6,34.4 154.4,35.2 151.2,35.2 
	152,30.4 155.3,30.3 155.1,31.1 "/>
<path class="st1" d="M169.4,35.1l0.8-4.8l2.4,0c0.6,0,1,0.1,1.2,0.3c0.2,0.2,0.2,0.6,0.1,1.1c-0.1,0.5-0.2,0.8-0.3,1
	s-0.4,0.3-0.7,0.4l0,0c0.5,0,0.7,0.3,0.6,0.9l-0.2,1.1l-0.9,0l0.2-0.9c0.1-0.5-0.1-0.7-0.6-0.7l-1.3,0l-0.3,1.6
	C170.4,35.1,169.4,35.1,169.4,35.1z M170.8,32.7l1.3,0c0.3,0,0.5-0.1,0.6-0.2s0.2-0.3,0.3-0.7c0.1-0.3,0.1-0.6,0-0.7
	s-0.3-0.2-0.6-0.2l-1.4,0L170.8,32.7z"/>
<path class="st1" d="M191.4,34l-2.1,0l-0.5,0.9l-1,0l2.4-4.8l1.4,0l0.8,4.8l-0.9,0L191.4,34z M191.3,33.4l-0.4-2.5l-1.2,2.5
	L191.3,33.4z M192.1,28.9l0.1,0.6l-1.4,0.2l0-0.4L192.1,28.9z"/>
<path class="st1" d="M213.6,30.1l-0.8,4.8l-0.9,0l0.5-2.6c0-0.2,0.1-0.4,0.1-0.7l0.1-0.4l0.1-0.4l0,0l-0.2,0.3l-0.2,0.3
	c-0.1,0.3-0.3,0.5-0.3,0.7l-1.5,2.7l-0.8,0l-0.6-2.7c0-0.1-0.1-0.4-0.1-0.7l-0.1-0.3l0-0.3l0,0l0,0.3l0,0.4c0,0.3-0.1,0.5-0.1,0.7
	l-0.5,2.6l-0.9,0l0.8-4.8l1.5,0l0.5,2.2c0,0.2,0.1,0.4,0.1,0.7l0,0.3l0.1,0.3l0,0l0.2-0.3l0.2-0.3c0.1-0.3,0.2-0.5,0.3-0.7l1.2-2.2
	l1.3,0L213.6,30.1z"/>
<polygon class="st1" points="229.7,30.1 228.8,34.9 227.9,34.9 228.8,30.1 "/>
<path class="st1" d="M247.2,33.1l0.9,0l0,0.2c-0.1,0.7-0.3,1.1-0.6,1.3s-0.8,0.3-1.7,0.3c-0.9,0-1.5-0.2-1.7-0.5
	c-0.2-0.3-0.1-1.1,0.1-2.5c0.1-0.8,0.4-1.3,0.7-1.6c0.3-0.2,1-0.4,1.9-0.4c0.7,0,1.1,0.1,1.3,0.3c0.2,0.2,0.2,0.6,0.1,1.2l0,0.1
	l-0.9,0l0-0.1c0.1-0.3,0-0.5-0.1-0.6s-0.4-0.1-0.8-0.1c-0.6,0-0.9,0.1-1.1,0.2c-0.1,0.1-0.3,0.5-0.4,1.2c-0.2,0.9-0.2,1.5-0.1,1.6
	c0.1,0.2,0.4,0.2,0.9,0.2c0.4,0,0.8,0,0.9-0.1c0.1-0.1,0.3-0.3,0.3-0.6L247.2,33.1z"/>
<path class="st1" d="M265.8,33.8l-2.1,0l-0.5,0.9l-1,0l2.4-4.8l1.4,0l0.8,4.8l-0.9,0L265.8,33.8z M265.7,33.2l-0.4-2.5l-1.2,2.5
	L265.7,33.2z"/>
<polygon class="st2" points="38.6,3.8 31.4,3.8 30.2,11 37.3,11 "/>
<polygon class="st3" points="46.2,3.8 39.1,3.8 37.8,11 45,11 "/>
<polygon class="st4" points="53.9,3.8 46.8,3.8 45.5,11 52.6,11 "/>
<polygon class="st2" points="37.2,11.4 30.1,11.4 28.8,18.6 36,18.6 "/>
<polygon class="st3" points="44.9,11.4 37.7,11.4 36.5,18.6 43.6,18.6 "/>
<polygon class="st4" points="52.6,11.4 45.4,11.4 44.1,18.6 51.3,18.6 "/>
<polygon class="st2" points="35.9,19 28.7,19 27.5,26.2 34.6,26.2 "/>
<polygon class="st3" points="43.5,19 36.4,19 35.1,26.2 42.3,26.2 "/>
<polygon class="st4" points="51.2,19 44.1,19 42.8,26.2 49.9,26.2 "/>
<polygon class="st5" points="11.1,3.8 4,3.8 2.7,11 9.9,11 "/>
<polygon class="st6" points="18.8,3.8 11.6,3.8 10.4,11 17.5,11 "/>
<polygon class="st7" points="26.4,3.8 19.3,3.8 18,11 25.2,11 "/>
<polygon class="st5" points="9.8,11.4 2.6,11.4 1.4,18.6 8.5,18.6 "/>
<polygon class="st6" points="17.4,11.4 10.3,11.4 9,18.6 16.2,18.6 "/>
<polygon class="st7" points="25.1,11.4 17.9,11.4 16.7,18.6 23.8,18.6 "/>
<polygon class="st5" points="8.4,19 1.3,19 0,26.2 7.1,26.2 "/>
<polygon class="st6" points="16.1,19 8.9,19 7.7,26.2 14.8,26.2 "/>
<polygon class="st7" points="23.7,19 16.6,19 15.3,26.2 22.5,26.2 "/>
</svg>
