<?xml version="1.0" encoding="utf-8"?>
<svg version="1.1" id="Layer_1" xmlns="http://www.w3.org/2000/svg" xmlns:xlink="http://www.w3.org/1999/xlink" x="0px" y="0px"
	 viewBox="0 0 775 154.8" style="enable-background:new 0 0 775 154.8;" xml:space="preserve">
<g>
	<g>
		<polygon points="225.2,0 205,0 205,72.5 256.3,72.5 256.3,55.2 225.2,55.2 		"/>
		<path d="M348.6,32.3c5.9,0,10.1,5.9,10.1,14.1c0,8.3-4.3,14.3-10.1,14.3c-5.9,0-9.9-5.7-9.9-14.3
			C338.7,37.9,342.7,32.3,348.6,32.3 M343.1,74.2c6.3,0,11.5-3.1,14.8-8.8l0.2-0.3h1.1v7.3h17.2V0h-18.1v26.7h-1.2l-0.2-0.2
			c-3.3-4.3-6.7-7-14-7c-13.5,0-22.7,10.9-22.7,27.2C320.3,63.4,329.3,74.2,343.1,74.2"/>
		<path d="M288.6,32.3c5.9,0,10.1,5.9,10.1,14.1c0,8.3-4.3,14.3-10.1,14.3c-5.9,0-9.9-5.7-9.9-14.3
			C278.7,37.9,282.7,32.3,288.6,32.3 M283.1,74.2c6.3,0,11.5-3.1,14.8-8.8l0.2-0.3h1.1v7.3h14.8V21.3h-15.7v5.4h-1.2l-0.2-0.2
			c-3.3-4.3-6.8-7-14-7c-13.5,0-22.7,10.9-22.7,27.2C260.3,63.4,269.2,74.2,283.1,74.2"/>
		<path d="M632.2,32.3c5.9,0,10.1,5.9,10.1,14.1c0,8.3-4.3,14.3-10.1,14.3c-6,0-9.9-5.7-9.9-14.3C622.3,37.9,626.2,32.3,632.2,32.3
			 M626.7,74.2c6.3,0,11.5-3.1,14.8-8.8l0.2-0.3h1.1v7.3h14.8V21.3h-15.7v5.4h-1.1l-0.2-0.2c-3.3-4.3-6.8-7-14-7
			c-13.6,0-22.7,10.9-22.7,27.2C603.8,63.4,612.8,74.2,626.7,74.2"/>
		<path d="M420.9,20.3c-0.5-0.2-1.3-0.3-2.6-0.3c-6.7,0-11.5,2.7-15.3,8.8l-0.2,0.3h-1.2v-7.9h-17.2v51.4h18.1V51.5
			c0-5.9,1.6-10.3,4.8-13c3.2-2.7,7.7-3.6,13.6-2.6V20.3z"/>
		<rect x="452.8" width="18.6" height="72.5"/>
		<rect x="479.5" width="18.6" height="72.5"/>
		<path d="M521.7,41.1c1.1-6.4,4.5-9.8,9.8-9.8c4.9,0,8.4,3.7,9.2,9.9l0.1,0.7h-19.3L521.7,41.1z M531.9,73.9
			c6.6,0,11.6-1.3,16.3-4.3c4.8-3.1,8.2-7.3,9.4-11.6H540c-1.6,2.6-4.2,3.9-7.5,3.9c-5.8,0-9.5-3.5-10.8-10.3l-0.1-0.7h37.2
			c0.1-10.5-3-19.2-8.9-24.6c-5-4.6-11.3-7-18.7-7c-15.7,0-27.1,11.5-27.1,27.3C504,62.7,515.5,73.9,531.9,73.9"/>
		<path d="M601.1,35.9V20.3c-0.5-0.2-1.3-0.3-2.6-0.3c-6.7,0-11.5,2.7-15.3,8.8l-0.2,0.3h-1.2v-7.9h-17.2v51.4h18.1V51.5
			c0-5.9,1.6-10.3,4.8-13C590.8,35.8,595.3,34.9,601.1,35.9"/>
		<rect x="426.6" width="18.1" height="13.6"/>
		<rect x="426.6" y="21.1" width="18.1" height="51.4"/>
	</g>
	<g>
		<polygon points="242.8,121.3 231.7,80.6 205,80.6 205,153 222.6,153 222.6,106.9 223.8,106.9 223.9,107.3 236,153 250.7,153 
			262.8,106.9 264,106.9 264,153 282.1,153 282.1,80.6 255.2,80.6 244,121.7 242.9,121.7 		"/>
		<path d="M306.5,122.4l0.1-0.7c1.1-6.4,4.5-9.8,9.8-9.8c4.9,0,8.4,3.7,9.2,9.9l0.1,0.7H306.5z M316.1,99.9
			c-15.7,0-27.1,11.5-27.1,27.3c0,16,11.4,27.2,27.8,27.2c6.6,0,11.7-1.3,16.3-4.3c4.8-3.1,8.2-7.3,9.4-11.6h-17.6
			c-1.5,2.6-4.2,3.9-7.6,3.9c-5.8,0-9.5-3.5-10.7-10.3l-0.1-0.7h37.2c0.1-10.5-3.1-19.2-8.9-24.6C329.8,102.2,323.6,99.9,316.1,99.9
			"/>
		<path d="M365.9,127.4c0-9.6,3.3-14.9,9.3-14.9c4.1,0,6.7,2.4,7.9,7.4h17.4c-0.4-2.9-1.3-5.6-2.6-8c-4.1-7.5-12.3-11.8-22.5-11.8
			c-16.5,0-27.9,11.2-27.9,27.3c0,16,11.5,27.2,27.9,27.2c14.5,0,25.2-9.1,25.5-21.7h-17.4c-0.7,6.1-3.4,9.2-8.1,9.2
			C369.4,142.1,365.9,136.8,365.9,127.4"/>
		<path d="M499.3,100c-6.8,0-12,2.7-16.2,8.6l-0.2,0.2h-1.2v-7.2h-17.2V153h18.1v-27.7c0-6.2,3.5-10.6,8.4-10.6c5,0,7.8,3.4,7.8,9.6
			V153H517v-33.4C517,107.3,510.3,100,499.3,100"/>
		<path d="M571.9,138.5l0.2-0.2c0,0,3.5-3.2,6.6-6.4l17-17.6v-12.7h-44.5v13.5h13.6c3.2,0,7.4-0.2,7.4-0.2l0.6,0v1.2l-0.2,0.2
			c0,0-2.7,2.4-5.2,4.9l-18.1,18.6V153h48v-13.6H581c-4.6,0-8.4,0.2-8.4,0.2l-0.6,0V138.5z"/>
		<path d="M697.5,126.9c0,8.3-4.3,14.3-10.1,14.3c-5.9,0-9.9-5.7-9.9-14.3c0-8.4,4-14.1,9.9-14.1
			C693.3,112.9,697.5,118.8,697.5,126.9 M681.7,100c-13.6,0-22.6,10.9-22.6,27.2c0,16.7,9,27.5,22.8,27.5c6.3,0,11.5-3.1,14.8-8.8
			l0.2-0.3h1.1v7.3h17.2V80.6H697v26.7h-1.2l-0.2-0.2C692.4,102.7,688.9,100,681.7,100"/>
		<path d="M444.4,126.9c0,8.3-4.3,14.3-10.1,14.3c-5.9,0-9.9-5.7-9.9-14.3c0-8.4,4-14.1,9.9-14.1
			C440.1,112.9,444.4,118.8,444.4,126.9 M428.5,100c-13.5,0-22.6,10.9-22.6,27.2c0,16.7,9,27.5,22.9,27.5c6.3,0,11.5-3.1,14.8-8.8
			l0.2-0.3h1.1v7.3h14.8v-51.2h-15.7v5.4h-1.2l-0.2-0.2C439.3,102.7,435.8,100,428.5,100"/>
		<path d="M639.4,126.9c0,8.3-4.3,14.3-10.1,14.3c-5.9,0-9.9-5.7-9.9-14.3c0-8.4,4-14.1,9.9-14.1
			C635.2,112.9,639.4,118.8,639.4,126.9 M623.6,100c-13.6,0-22.6,10.9-22.6,27.2c0,16.7,9,27.5,22.8,27.5c6.3,0,11.5-3.1,14.8-8.8
			l0.2-0.3h1.1v7.3h14.8v-51.2h-15.7v5.4h-1.2l-0.2-0.2C634.3,102.7,630.8,100,623.6,100"/>
		<path d="M759.8,126.9c0,8.3-4.3,14.3-10.1,14.3c-5.9,0-9.9-5.7-9.9-14.3c0-8.4,4-14.1,9.9-14.1
			C755.6,112.9,759.8,118.8,759.8,126.9 M758,107c-3.3-4.3-6.7-7-14-7c-13.6,0-22.7,10.9-22.7,27.2c0,16.7,9,27.5,22.9,27.5
			c6.3,0,11.5-3.1,14.8-8.8l0.2-0.3h1.1v7.3H775v-51.2h-15.7v5.4h-1.2L758,107z"/>
		<rect x="524.6" y="80.6" width="18.1" height="13.6"/>
		<rect x="524.6" y="101.7" width="18.1" height="51.4"/>
	</g>
	<g>
		<path d="M76.5,11.2c-36.2,0-65.6,29.7-65.6,66.3c0,36.6,29.4,66.3,65.6,66.3c36.2,0,65.6-29.7,65.6-66.3
			C142,40.9,112.6,11.2,76.5,11.2 M76.5,154.8C34.3,154.8,0,120.1,0,77.5C0,34.8,34.3,0.2,76.5,0.2c42.2,0,76.5,34.7,76.5,77.3
			C152.9,120.1,118.6,154.8,76.5,154.8"/>
		<path d="M92.4,53.6c-0.6-1.2-2.2-1.2-2.8-0.1L79.5,71.9c-0.2,0.5-0.2,1,0,1.4l13.1,28c0.3,0.6,0.8,0.9,1.4,0.9h18.8
			c1.2,0,1.9-1.2,1.4-2.3L92.4,53.6z"/>
		<path d="M63.3,53.5c-0.6-1.1-2.2-1.1-2.8,0.1L38.8,100c-0.5,1.1,0.3,2.3,1.4,2.3H59c0.6,0,1.2-0.4,1.4-0.9l13.1-28
			c0.2-0.5,0.2-1,0-1.4L63.3,53.5z"/>
	</g>
</g>
</svg>
